<svg id="visual" viewBox="0 0 900 600" width="900" height="600" xmlns="http://www.w3.org/2000/svg" xmlns:xlink="http://www.w3.org/1999/xlink" version="1.1"><g transform="translate(483.33471568047116 320.86735151233165)"><path d="M150.2 -267.6C189 -237.7 211 -186.1 235.3 -137.9C259.6 -89.7 286.3 -44.8 275.8 -6.1C265.2 32.7 217.5 65.3 181 92.4C144.4 119.5 119.1 140.9 90.8 170.1C62.5 199.3 31.3 236.1 -7.5 249.2C-46.3 262.3 -92.7 251.5 -128.5 226.7C-164.3 201.8 -189.5 162.9 -228.2 122.8C-266.8 82.7 -318.9 41.3 -337.3 -10.6C-355.6 -62.5 -340.2 -125 -294.3 -152.6C-248.3 -180.1 -171.9 -172.8 -117.8 -193.9C-63.7 -214.9 -31.8 -264.5 11.9 -285.1C55.7 -305.8 111.3 -297.5 150.2 -267.6" fill="#f5f5f5"></path></g></svg>