<?xml version="1.0" encoding="utf-8" ?>
<svg xmlns="http://www.w3.org/2000/svg" xmlns:xlink="http://www.w3.org/1999/xlink" width="512" height="512">
	<path fill="#3B82F6" d="M424.703 330.096C465.583 351.056 492.942 401.776 495.342 446.63L495.4 494.591L421.935 494.576C421.601 493.918 421.364 493.32 421.182 492.604L409.105 458.493C408.056 453.244 406.261 448.064 405.099 442.81C401.539 426.724 398.894 405.351 401.58 388.75L403.173 378.28C407.37 356.466 412.173 347 424.703 330.096Z"/>
	<path fill="#3B82F6" d="M85.8356 330.914C92.34 338.172 97.4742 346.422 101.48 355.304L104.911 363.921C105.206 364.755 105.898 367.693 106.426 368.193C117.216 409.921 112.657 444.139 97.4383 484.85C93.9248 494.25 96.6009 494.747 88.0149 494.743L16.8916 494.708L16.7783 448.726C19.0398 404.283 38.0199 368.687 72.0715 340.342C75.996 337.076 80.9985 332.697 85.8356 330.914Z"/>
	<path fill="#34285A" d="M250.098 13.8983C293.488 11.4828 343.213 32.8952 354.12 78.474C359.619 101.454 352.606 147.893 345.816 171.816C336.161 155.607 329.786 142.911 322.955 125.384C320.202 118.32 317.006 104.448 307.375 107.251L296.036 111.027C284.814 114.457 272.977 116.062 261.27 116.563C246.498 117.135 231.515 115.548 217.272 111.499C212.09 110.025 207.059 107.846 201.873 106.491C194.441 109.713 193.043 114.22 190.638 121.271L186.246 133.5C182.356 143.45 177.495 152.808 172.057 161.986L165.89 172.08L155.993 114.434C148.856 62.8503 179.52 27.6194 228.625 16.7501C235.69 15.1864 242.892 14.3391 250.098 13.8983Z"/>
	<path fill="#3B82F6" d="M331.746 302.314C332.587 302.289 333.622 302.501 334.481 302.575L341.185 303.389C359.429 306.126 377.429 310.471 394.9 316.427C398.405 317.622 402.366 318.696 405.673 320.321C401.53 325.485 398.36 331.656 395.501 337.614C375.151 380.013 377.74 425.663 391.284 469.638C392.173 472.526 392.978 475.905 394.315 478.599C394.584 479.549 399.662 493.545 400.192 494.242L114.99 494.604L115.402 493.961C115.898 493.043 116.127 491.732 116.523 490.723C132.311 450.456 138.448 399.137 124.594 358.004C122.099 350.44 111.669 326.315 105.661 320.59C120.018 311.035 159.758 304.085 176.624 303.368C177.788 307.905 178.723 312.831 180.119 317.547C196.105 371.554 259.197 391.95 304.088 358.034C321.781 344.667 328.87 323.51 331.746 302.314ZM168.189 414.737L168.038 423.115L221.08 423.274C220.935 421.962 220.836 415.676 220.412 414.933L172.4 414.981C171.068 414.964 169.556 414.732 168.189 414.737Z"/>
</svg>
