<?xml version="1.0" encoding="utf-8" ?>
<svg xmlns="http://www.w3.org/2000/svg" xmlns:xlink="http://www.w3.org/1999/xlink" width="512" height="512">
	<path fill="#3B82F6" d="M201.587 249.186C203.388 250.037 204.974 251.727 206.454 253.032L214.94 260.314C227.242 269.869 243.058 281.556 259.566 279.334C279.253 276.684 295.794 261.255 309.913 248.436L310.012 271.659C310.105 279.529 310.292 288.64 313.586 295.935C317.909 305.509 329.237 313.741 338.793 317.121C341.466 318.067 344.277 318.535 346.901 319.629L359.541 324.166C362.204 325.122 365.47 326.633 368.325 326.802C371.828 327.544 380.957 331.816 383.884 333.531C376.042 374.161 375.83 416.362 398.462 452.853C406.216 465.356 406.914 463.315 406.984 477.847L407.096 496.415L104.938 496.28L105.098 470.375C105.167 468.71 105.193 466.945 105.65 465.334L105.747 465C106.665 461.737 109.16 459.284 111.066 456.551C137.246 419.019 135.941 376.496 128.421 333.518C133.086 330.513 138.822 328.964 143.982 326.941L164.836 319.529C167.645 318.352 170.64 317.841 173.53 316.912C182.649 313.983 193.435 305.543 197.777 296.693C201.688 288.722 201.552 278.644 201.585 269.938L201.587 249.186Z"/>
	<path fill="#F5F5F5" d="M201.587 249.186C203.388 250.037 204.974 251.727 206.454 253.032L214.94 260.314C227.242 269.869 243.058 281.556 259.566 279.334C279.253 276.684 295.794 261.255 309.913 248.436L310.012 271.659C310.105 279.529 310.292 288.64 313.586 295.935C317.909 305.509 329.237 313.741 338.793 317.121C341.466 318.067 344.277 318.535 346.901 319.629C344.935 324.262 343.626 329.289 341.77 334C328.172 368.507 303.023 402.761 274.323 425.954C268.612 430.569 262.386 435.516 255.286 437.702C254 437.269 252.815 436.78 251.631 436.114C215.362 415.727 176.582 360.788 164.836 319.529C167.645 318.352 170.64 317.841 173.53 316.912C182.649 313.983 193.435 305.543 197.777 296.693C201.688 288.722 201.552 278.644 201.585 269.938L201.587 249.186Z"/>
	<path fill="#D6D7D7" d="M201.587 249.186C203.388 250.037 204.974 251.727 206.454 253.032L214.94 260.314C227.242 269.869 243.058 281.556 259.566 279.334C279.253 276.684 295.794 261.255 309.913 248.436L310.012 271.659C310.069 271.303 309.994 270.888 309.895 270.514L309.625 270.411C307.419 271.519 305.322 273.772 303.538 275.475L288.948 290.448C280.774 298.798 272.158 306.521 260.25 308.586C229.036 313.999 211.045 269.479 201.875 268.003L201.576 269.938L201.587 249.186Z"/>
	<path fill="#34285A" d="M143.982 326.941L143.92 326.636C143.469 324.493 142.663 322.447 142.085 320.335L139.752 310C136.708 294.489 134.408 278.328 133.499 262.528L133.441 225.197C134.236 204.357 137.828 179.129 144.887 159.887L148.486 150.432C149.824 146.995 150.332 145.386 150.017 141.692L149.294 133.555C147.048 95.9258 160.952 55.9529 192.408 33.3748C239.665 -0.545655 310.071 9.59925 343.302 58.4189C358.254 80.3855 364.042 107.766 362.352 134.039C362.111 137.787 360.575 142.004 361.892 145.625C365.308 155.019 369.214 164.082 371.591 173.831C375.282 188.969 377.917 208.892 378.598 224.693L378.426 262.839C377.29 281.277 373.79 308.813 368.325 326.802C365.47 326.633 362.204 325.122 359.541 324.166L346.901 319.629C344.277 318.535 341.466 318.067 338.793 317.121C329.237 313.741 317.909 305.509 313.586 295.935C310.292 288.64 310.105 279.529 310.033 271.659L309.922 248.436C295.794 261.255 279.253 276.684 259.566 279.334C243.058 281.556 227.242 269.869 214.94 260.314L206.454 253.032C204.974 251.727 203.388 250.037 201.596 249.186L201.584 269.938C201.552 278.644 201.688 288.722 197.777 296.693C193.435 305.543 182.649 313.983 173.53 316.912C170.64 317.841 167.645 318.352 164.836 319.529L143.982 326.941Z"/>
	<path fill="#F5F5F5" d="M201.596 249.186L201.259 247.798C200.646 245.94 197.925 244.344 196.464 243.048C191.671 238.798 187.639 233.536 184.141 228.205C182.028 224.986 173.468 208.321 173.332 208.257C170.813 207.072 168.391 212.708 160.233 204.588C154.041 198.424 148.775 189.875 146.135 181.533C142.889 171.281 146.965 164 151.759 154.877C152.56 156.001 152.957 157.879 153.438 159.217L157.948 171.25C160.685 177.865 163.949 178.651 164.426 177.25C164.657 176.573 163.583 173.528 163.381 172.77L158.549 154.202C157.317 149.098 157.061 149.304 160.209 145.08L165.011 138.906C191.525 106.248 230.669 87.3622 272.655 87.4667C309.091 87.5574 348.67 104.186 350.492 145.312C350.775 151.694 349.882 158.102 348.895 164.391C348.817 164.889 344.732 181.576 350.369 177.12C353.459 174.677 358.885 157.294 359.547 152.906C360.269 155.038 361.409 156.873 362.402 158.875C368.733 171.634 367.808 179.915 360.085 192.41C357.486 196.615 349.889 207.708 344.931 208.79L344.625 208.85C342.419 209.3 339.63 208.653 337.437 208.212C331.499 220.61 325.588 233.531 315.223 242.901C313.443 244.509 311.302 246.133 310.052 248.195L309.913 248.436C295.794 261.255 279.253 276.684 259.566 279.334C243.058 281.556 227.242 269.869 214.94 260.314L206.454 253.032C204.974 251.727 203.388 250.037 201.596 249.186Z"/>
</svg>
